<svg id="Layer_1" data-name="Layer 1" xmlns="http://www.w3.org/2000/svg" viewBox="0 0 301 70"><title>Hustle-logo</title><rect width="9" height="31" fill="#070707"/><rect x="22" width="9" height="31" fill="#070707"/><rect x="10" y="2" width="10" height="26" transform="translate(30 0) rotate(90)" fill="#070707"/><path d="M73,0H64V18.5046A4.4955,4.4955,0,0,1,59.5046,23H52.4954A4.4955,4.4955,0,0,1,48,18.5046V0H39V18.0835A12.9165,12.9165,0,0,0,51.9165,31h8.167A12.9165,12.9165,0,0,0,73,18.0835Z" fill="#070707"/><path d="M200,39h-9V57.5046A4.4955,4.4955,0,0,1,186.5046,62h-7.0092A4.4955,4.4955,0,0,1,175,57.5046V39h-9V57.0835A12.9165,12.9165,0,0,0,178.9165,70h8.167A12.9165,12.9165,0,0,0,200,57.0835Z" fill="#b41233"/><path d="M113,0H89.5A9.5,9.5,0,0,0,80,9.5h0A9.5,9.5,0,0,0,89.5,19h15a1.5,1.5,0,0,1,1.5,1.5h0a1.5,1.5,0,0,1-1.5,1.5H84l-6,9h25.6983A10.3017,10.3017,0,0,0,114,20.6983v-.9822A7.7161,7.7161,0,0,0,106.2839,12H89.5A1.5,1.5,0,0,1,88,10.5h0A1.5,1.5,0,0,1,89.5,9H108Z" fill="#070707"/><polygon points="116 9 122 0 151 0 145 9 116 9" fill="#070707"/><rect x="127" y="9" width="10" height="22" fill="#070707"/><path d="M123,39H99.5A9.5,9.5,0,0,0,90,48.5h0A9.5,9.5,0,0,0,99.5,58h15a1.5,1.5,0,0,1,1.5,1.5h0a1.5,1.5,0,0,1-1.5,1.5H94l-6,9h25.6983A10.3017,10.3017,0,0,0,124,59.6983v-.9822A7.7161,7.7161,0,0,0,116.2839,51H99.5A1.5,1.5,0,0,1,98,49.5h0A1.5,1.5,0,0,1,99.5,48H118Z" fill="#b41233"/><polygon points="126 48 132 39 161 39 155 48 126 48" fill="#b41233"/><rect x="137" y="48" width="10" height="22" fill="#b41233"/><rect x="247" y="39" width="10" height="31" fill="#b41233"/><polygon points="156 0 156 31 179 31 185 22 165 22 165 0 156 0" fill="#070707"/><polygon points="220 0 190 0 190 31 215 31 220 22 199 22 199 19 214 19 219 11 199 11 199 8 215 8 220 0" fill="#070707"/><path d="M212,39h13.1693A14.8307,14.8307,0,0,1,240,53.8307h0A16.1692,16.1692,0,0,1,223.8307,70H207V50h10V60h8a6,6,0,0,0,6-6h0a6,6,0,0,0-6-6H207Z" fill="#b41233"/><path d="M286,39h-7a15,15,0,0,0,0,30h7a15,15,0,0,0,0-30Zm-.8919,21.8919h-5.2162a6.8919,6.8919,0,0,1,0-13.7838h5.2162a6.8919,6.8919,0,1,1,0,13.7838Z" fill="#b41233"/></svg>