<?xml version="1.0" encoding="utf-8"?>
<!-- Generator: Adobe Illustrator 22.1.0, SVG Export Plug-In . SVG Version: 6.00 Build 0)  -->
<svg version="1.1" id="Layer_1" xmlns="http://www.w3.org/2000/svg" xmlns:xlink="http://www.w3.org/1999/xlink" x="0px" y="0px"
	 viewBox="0 0 448.8 74.3" style="enable-background:new 0 0 448.8 74.3;" xml:space="preserve">
<style type="text/css">
	.st0{fill:#282E38;}
	.st1{fill:none;stroke:#282E38;}
	.st2{fill:#FFFFFF;}
</style>
<g>
	<g>
		<g>
			<path class="st0" d="M35.7,3.1l4.2,4.2l-4.6,22.8L35,31.3h1.2h20.5h0.8l0.2-0.8l4.6-22.7l16-4.7l4.2,4.2L69.6,71.8h-21l-4.2-4.2
				L54.1,49l0.7-1.5h-1.6H32.7h-0.8l-0.2,0.8L27,71.8H6l-4.3-4.3L19.6,7.8L35.7,3.1 M78.6,2L61.4,7l-4.7,23.3H36.3L41,7l-5-5L18.8,7
				L0.6,67.8l5,5h22.2l4.9-24.3h20.5l-9.9,19.3l5,5h22.2L83.6,7L78.6,2L78.6,2z"/>
		</g>
		<g>
			<path class="st0" d="M120.1,3.1l4.2,4.2l-7,35.3c-0.4,1.8-0.6,3.5-0.6,5c0,3.2,0.9,5.7,2.6,7.3c1.7,1.6,4.1,2.4,7.3,2.4
				c3.5,0,6.4-1.2,8.4-3.4c2-2.2,3.4-5.8,4.5-10.9l7-35.2L162,3.1l4.2,4.2l-7.3,36.6c-2,9.7-5.9,17.1-11.7,22
				c-5.8,4.9-13.7,7.4-23.4,7.4c-5.7,0-10.7-1-14.9-2.9c-4.1-1.9-7.3-4.6-9.4-8c-2.2-3.5-3.3-7.6-3.3-12.3c0-1.9,0.2-4.2,0.7-6.8
				L104,7.8L120.1,3.1 M162.3,2l-16.8,5l-7.1,35.8c-1,4.9-2.4,8.4-4.2,10.4c-1.8,2.1-4.4,3.1-7.6,3.1c-2.9,0-5.1-0.7-6.6-2.2
				s-2.3-3.6-2.3-6.6c0-1.4,0.2-3,0.6-4.8L125.4,7l-5-5l-17.2,5l-7.2,36.2c-0.5,2.6-0.8,5-0.8,7c0,4.9,1.1,9.2,3.4,12.8
				c2.3,3.6,5.6,6.4,9.9,8.4c4.3,2,9.4,3,15.3,3c10,0,18-2.5,24.1-7.6s10-12.6,12-22.6L167.3,7L162.3,2L162.3,2z"/>
		</g>
		<g>
			<path class="st0" d="M223.7,4.2c1.1,0,2.2,0.2,3.3,0.5c2.5,0.7,4.8,2.3,4.9,2.3c1.7,1.2,3.2,2.6,4.4,4.3L229,25.9
				c-2.4-1.4-5-2.5-7.8-3.2c-3.2-0.8-6.5-1.3-9.8-1.3c-3.3,0-5.8,0.5-7.6,1.4c-2,1.1-3.1,2.4-3.1,4c0,1.1,0.5,2.7,2.9,3.7
				c1.6,0.7,4.1,1.5,7.7,2.3c4.2,1,7.8,2,10.6,3.2c2.7,1.1,5.2,2.7,7.2,5c2,2.2,2.9,5.1,2.9,8.7c0,4.6-1.3,8.8-3.9,12.3
				c-2.6,3.5-6.3,6.3-11.1,8.3c-4.9,2-10.7,3-17.3,3c-5.6,0-10.9-0.6-15.8-1.8c-4.8-1.2-8.9-2.7-12-4.7l-4.1-4.1L180,52.5
				c7,3.9,14.4,5.9,22.1,5.9c3,0,5.3-0.4,6.9-1.1c2.3-1.1,2.8-2.6,2.8-3.7c0-1.1-0.5-2.6-2.9-3.6c-1.6-0.7-4-1.5-7.4-2.3
				c-4.3-1.1-8-2.3-10.8-3.4c-2.7-1.1-5.1-2.8-7.2-5.1c-2-2.2-3-5.2-3-8.9c0-4.7,1.3-8.9,3.8-12.4c2.5-3.6,6.3-6.3,11.1-8.3
				c3.3-1.4,4.9-1.4,7.1-1.5c2.2-0.1,5-0.2,10.5-1.5c1.2-0.3,2.3-0.6,3.4-0.9C219.2,4.8,221.4,4.2,223.7,4.2 M223.7,3.2
				c-3.3,0-6.5,1.2-10.9,2.3c-10.9,2.7-10.9,0.3-17.8,3.1c-5,2-8.9,4.9-11.5,8.6c-2.7,3.7-4,8.1-4,13c0,3.9,1.1,7.1,3.2,9.5
				c2.2,2.4,4.7,4.2,7.6,5.4c2.9,1.2,6.5,2.3,10.9,3.4c3.3,0.8,5.7,1.6,7.3,2.3c1.5,0.7,2.3,1.6,2.3,2.7c0,1.2-0.8,2.1-2.3,2.8
				s-3.7,1-6.5,1c-7.7,0-15.1-2-22.2-6.1l-13.6,11.4l5,5c3.3,2,7.4,3.6,12.4,4.8c5,1.2,10.4,1.8,16.1,1.8c6.8,0,12.7-1,17.7-3.1
				c5-2,8.9-4.9,11.6-8.6c2.7-3.7,4-8,4-12.9c0-3.9-1.1-7-3.2-9.4c-2.1-2.4-4.7-4.1-7.6-5.3c-2.9-1.1-6.5-2.2-10.8-3.2
				c-3.5-0.8-6-1.6-7.6-2.3c-1.5-0.7-2.3-1.6-2.3-2.8c0-1.2,0.8-2.2,2.5-3.1c1.7-0.9,4.1-1.3,7.1-1.3c3.3,0,6.4,0.4,9.5,1.2
				c3.1,0.8,5.9,2,8.5,3.7l8-16.2c-0.9-1.3-2.5-3.3-5-5c-0.1-0.1-2.5-1.7-5.1-2.4C226,3.3,224.9,3.2,223.7,3.2L223.7,3.2z"/>
		</g>
		<g>
			<path class="st0" d="M307.4,3l4.3,4.3l-3.2,15.9h-18.5h-0.8l-0.2,0.8l-9.5,47.8h-20.9l-4.3-4.3l14.5-43l0.4-1.3h-1.4H249
				l-4.1-4.1L252.6,8L307.4,3 M307.8,2l-55.7,5l-8.5,12.2l5,5h19.3l-14.7,43.6l5,5h22.2l9.7-48.6h19.3L312.8,7L307.8,2L307.8,2z"/>
		</g>
		<g>
			<path class="st0" d="M344.8,3.1l4.2,4.2l-9.6,48.1l-0.3,1.5l1.5-0.3l24.2-4.9l4.2,4.2l-3.2,15.9h-50.7l-4.3-4.3l17.8-59.7
				L344.8,3.1 M345.1,2l-17.2,5l-18.2,60.8l5,5h51.9l3.5-17.2l-5-5l-24.7,5L350.1,7L345.1,2L345.1,2z"/>
		</g>
		<g>
			<path class="st0" d="M443.4,3l4.3,4.3l-3.1,15.4h-30.9h-0.8l-0.2,0.8l-1.5,7.7l-0.3,1.5l1.5-0.3l22.3-4.9l4.2,4.2l-2.9,14.7H409
				h-0.8l-0.2,0.8l-1.7,8.6l-0.3,1.4l1.4-0.3l27.5-4.9l4.3,4.3l-3.1,15.4h-53.5l-4.3-4.3l17.8-59.6L443.4,3 M443.8,2l-48.5,5
				l-18.2,60.8l5,5h54.7l3.4-16.7l-5-5l-28,5l1.7-8.6h27.9l3.2-16l-5-5l-22.8,5l1.5-7.7h31.7L448.8,7L443.8,2L443.8,2z"/>
		</g>
	</g>
	<line class="st1" x1="361.1" y1="67.2" x2="366.2" y2="72.3"/>
	<line class="st1" x1="431.1" y1="67" x2="436.1" y2="72"/>
	<line class="st1" x1="65" y1="67.3" x2="70" y2="72.4"/>
	<line class="st1" x1="22.2" y1="67.2" x2="27.3" y2="72.3"/>
	<line class="st1" x1="431.3" y1="41.8" x2="436.3" y2="46.9"/>
	<line class="st1" x1="403.9" y1="42.4" x2="409" y2="47.4"/>
	<line class="st1" x1="408.7" y1="18.7" x2="413.8" y2="23.7"/>
	<line class="st1" x1="285" y1="19.2" x2="290.1" y2="24.2"/>
	<line class="st1" x1="439.8" y1="18.1" x2="444.9" y2="23.2"/>
	<line class="st1" x1="303.7" y1="18.6" x2="308.7" y2="23.6"/>
	<line class="st1" x1="224.3" y1="21.5" x2="229" y2="25.9"/>
	<line class="st1" x1="274.3" y1="66.7" x2="279.9" y2="72.3"/>
</g>
<g>
	<path class="st0" d="M78.6,2L65.5,67.8H43.3l4.9-24.3H27.7l-4.9,24.3H0.6L13.8,2H36l-4.7,23.3h20.5L56.4,2H78.6z"/>
	<path class="st0" d="M103.5,66.3c-4.3-2-7.6-4.8-9.9-8.4c-2.3-3.6-3.4-7.9-3.4-12.8c0-2,0.2-4.3,0.8-7L98.2,2h22.2l-7.1,35.8
		c-0.4,1.8-0.6,3.4-0.6,4.8c0,2.9,0.8,5.1,2.3,6.6c1.5,1.4,3.7,2.2,6.6,2.2c3.3,0,5.8-1,7.6-3.1c1.8-2.1,3.2-5.5,4.2-10.4L140.5,2
		h21.8l-7.4,37.1c-2,10-6,17.5-12,22.6c-6,5.1-14,7.6-24.1,7.6C112.9,69.3,107.8,68.3,103.5,66.3z"/>
	<path class="st0" d="M178.7,67.5c-5-1.2-9.2-2.8-12.4-4.8l8.6-16.4c7.1,4.1,14.5,6.1,22.2,6.1c2.8,0,5-0.3,6.5-1
		c1.5-0.7,2.3-1.6,2.3-2.8c0-1.1-0.8-2-2.3-2.7c-1.5-0.7-4-1.4-7.3-2.3c-4.4-1.1-8-2.3-10.9-3.4c-2.9-1.2-5.4-2.9-7.6-5.4
		c-2.2-2.4-3.2-5.6-3.2-9.5c0-4.9,1.3-9.3,4-13c2.7-3.7,6.5-6.6,11.5-8.6c5-2,10.9-3.1,17.8-3.1c4.9,0,9.4,0.5,13.7,1.5
		c4.2,1,7.9,2.4,11,4.2l-8,16.2c-2.6-1.6-5.4-2.9-8.5-3.7c-3.1-0.8-6.3-1.2-9.5-1.2c-3.1,0-5.5,0.4-7.1,1.3
		c-1.7,0.9-2.5,1.9-2.5,3.1c0,1.2,0.8,2.1,2.3,2.8c1.5,0.7,4.1,1.4,7.6,2.3c4.3,1,7.8,2.1,10.8,3.2s5.4,2.9,7.6,5.3
		c2.1,2.4,3.2,5.5,3.2,9.4c0,4.9-1.3,9.2-4,12.9c-2.7,3.7-6.5,6.6-11.6,8.6c-5,2-10.9,3.1-17.7,3.1
		C189.1,69.3,183.8,68.7,178.7,67.5z"/>
	<path class="st0" d="M262.9,19.2h-19.3L247.1,2h60.7l-3.5,17.2h-19.3l-9.7,48.6h-22.2L262.9,19.2z"/>
	<path class="st0" d="M322.9,2h22.2l-9.7,48.6h29.7l-3.5,17.2h-51.9L322.9,2z"/>
	<path class="st0" d="M408.8,18.7l-1.5,7.7h27.8l-3.2,16H404l-1.7,8.6h33l-3.4,16.7h-54.7L390.3,2h53.5l-3.4,16.7H408.8z"/>
</g>
<g>
	<g>
		<path class="st2" d="M77.4,3L64.6,66.8H44.5l4.6-23.1l0.2-1.2h-1.2H27.7h-0.8l-0.2,0.8L22,66.8H1.8L14.6,3h20.1l-4.5,22.1L30,26.3
			h1.2h20.5h0.8l0.2-0.8L57.3,3H77.4 M78.6,2H56.4l-4.7,23.3H31.3L36,2H13.8L0.6,67.8h22.2l4.9-24.3h20.5l-4.9,24.3h22.2L78.6,2
			L78.6,2z"/>
	</g>
	<g>
		<path class="st2" d="M161.1,3l-7.2,35.9c-2,9.7-5.9,17.1-11.7,22c-5.8,4.9-13.7,7.4-23.4,7.4c-5.7,0-10.7-1-14.9-2.9
			c-4.1-1.9-7.3-4.6-9.4-8c-2.2-3.5-3.3-7.6-3.3-12.3c0-1.9,0.2-4.2,0.7-6.8L99,3h20.1l-6.9,34.6c-0.4,1.8-0.6,3.5-0.6,5
			c0,3.2,0.9,5.7,2.6,7.3c1.7,1.6,4.1,2.4,7.3,2.4c3.5,0,6.4-1.2,8.4-3.4c2-2.2,3.4-5.8,4.5-10.9l7-35H161.1 M162.3,2h-21.8
			l-7.1,35.8c-1,4.9-2.4,8.4-4.2,10.4c-1.8,2.1-4.4,3.1-7.6,3.1c-2.9,0-5.1-0.7-6.6-2.2c-1.5-1.4-2.3-3.6-2.3-6.6
			c0-1.4,0.2-3,0.6-4.8L120.4,2H98.2l-7.2,36.2c-0.5,2.6-0.8,5-0.8,7c0,4.9,1.1,9.2,3.4,12.8c2.3,3.6,5.6,6.4,9.9,8.4
			c4.3,2,9.4,3,15.3,3c10,0,18-2.5,24.1-7.6c6-5.1,10-12.6,12-22.6L162.3,2L162.3,2z"/>
	</g>
	<g>
		<path class="st2" d="M207.8,1.5c4.8,0,9.3,0.5,13.5,1.4c3.7,0.9,7.1,2.1,9.9,3.6L224,20.9c-2.4-1.4-5-2.5-7.8-3.2
			c-3.2-0.8-6.5-1.3-9.8-1.3c-3.3,0-5.8,0.5-7.6,1.4c-2,1.1-3.1,2.4-3.1,4c0,1.1,0.5,2.7,2.9,3.7c1.6,0.7,4.1,1.5,7.7,2.3
			c4.2,1,7.8,2.1,10.6,3.2c2.8,1.1,5.2,2.7,7.2,5c2,2.2,2.9,5.1,2.9,8.7c0,4.6-1.3,8.8-3.9,12.3c-2.6,3.5-6.3,6.3-11.1,8.3
			c-4.9,2-10.7,3-17.3,3c-5.6,0-10.9-0.6-15.8-1.8c-4.5-1.1-8.3-2.5-11.3-4.2l7.6-14.6c6.9,3.8,14.3,5.7,21.8,5.7
			c3,0,5.3-0.4,6.9-1.1c2.3-1.1,2.8-2.6,2.8-3.7c0-1.1-0.5-2.6-2.9-3.6c-1.6-0.7-4-1.5-7.4-2.3c-4.3-1.1-8-2.3-10.8-3.4
			c-2.7-1.1-5.1-2.8-7.2-5.1c-2-2.2-3-5.2-3-8.9c0-4.7,1.3-8.9,3.8-12.4c2.5-3.6,6.3-6.3,11.1-8.3C195.3,2.5,201.1,1.5,207.8,1.5
			 M207.8,0.5c-6.8,0-12.8,1-17.8,3.1c-5,2-8.9,4.9-11.5,8.6c-2.7,3.7-4,8.1-4,13c0,3.9,1.1,7.1,3.2,9.5c2.2,2.4,4.7,4.2,7.6,5.4
			c2.9,1.2,6.5,2.3,10.9,3.4c3.3,0.8,5.7,1.6,7.3,2.3c1.5,0.7,2.3,1.6,2.3,2.7c0,1.2-0.8,2.1-2.3,2.8c-1.5,0.7-3.7,1-6.5,1
			c-7.7,0-15.1-2-22.2-6.1l-8.6,16.4c3.3,2,7.4,3.6,12.4,4.8c5,1.2,10.4,1.8,16.1,1.8c6.8,0,12.7-1,17.7-3.1c5-2,8.9-4.9,11.6-8.6
			c2.7-3.7,4-8,4-12.9c0-3.9-1.1-7-3.2-9.4c-2.1-2.4-4.7-4.1-7.6-5.3s-6.5-2.2-10.8-3.2c-3.5-0.8-6-1.6-7.6-2.3
			c-1.5-0.7-2.3-1.6-2.3-2.8c0-1.2,0.8-2.2,2.5-3.1c1.7-0.9,4.1-1.3,7.1-1.3c3.3,0,6.4,0.4,9.5,1.2c3.1,0.8,5.9,2,8.5,3.7l8-16.2
			c-3.1-1.8-6.7-3.2-11-4.2C217.2,1,212.7,0.5,207.8,0.5L207.8,0.5z"/>
	</g>
	<g>
		<path class="st2" d="M306.6,3l-3.1,15.2h-18.5h-0.8l-0.2,0.8l-9.5,47.8h-20.1l9.4-47.4l0.2-1.2h-1.2h-18L247.9,3H306.6 M307.8,2
			h-60.7l-3.5,17.2h19.3l-9.7,48.6h22.2l9.7-48.6h19.3L307.8,2L307.8,2z"/>
	</g>
	<g>
		<path class="st2" d="M343.9,3l-9.4,47.4l-0.2,1.2h1.2h28.5l-3.1,15.2H311L323.8,3H343.9 M345.1,2h-22.2l-13.2,65.8h51.9l3.5-17.2
			h-29.7L345.1,2L345.1,2z"/>
	</g>
	<g>
		<path class="st2" d="M442.6,3l-3,14.7h-30.9h-0.8l-0.2,0.8l-1.5,7.7l-0.2,1.2h1.2h26.6l-2.8,14H404h-0.8l-0.2,0.8l-1.7,8.6
			l-0.2,1.2h1.2H434l-3,14.7h-52.7L391.2,3H442.6 M443.8,2h-53.5l-13.2,65.8h54.7l3.4-16.7h-33l1.7-8.6h27.9l3.2-16h-27.8l1.5-7.7
			h31.7L443.8,2L443.8,2z"/>
	</g>
</g>
</svg>
