<?xml version="1.0" encoding="utf-8"?>
<!-- Generator: Adobe Illustrator 22.1.0, SVG Export Plug-In . SVG Version: 6.00 Build 0)  -->
<svg version="1.1" id="Layer_1" xmlns="http://www.w3.org/2000/svg" xmlns:xlink="http://www.w3.org/1999/xlink" x="0px" y="0px"
	 viewBox="0 0 700.1 182.1" style="enable-background:new 0 0 700.1 182.1;" xml:space="preserve">
<style type="text/css">
	.st0{fill:#282E38;}
	.st1{fill:none;stroke:#282E38;}
	.st2{fill:#FFFFFF;}
</style>
<g>
	<g>
		<g>
			<g>
				<g>
					<path class="st0" d="M286.4,109.2l4.2,4.2l-4.6,22.8l-0.2,1.2h1.2h20.5h0.8l0.2-0.8l4.6-22.7l16-4.7l4.2,4.2l-12.9,64.5h-21
						l-4.2-4.2l9.6-18.6l0.7-1.5h-1.6h-20.5h-0.8l-0.2,0.8l-4.7,23.4h-21l-4.3-4.3l17.8-59.7L286.4,109.2 M329.4,108.1l-17.2,5
						l-4.7,23.3H287l4.7-23.3l-5-5l-17.2,5l-18.2,60.8l5,5h22.2l4.9-24.3h20.5l-9.9,19.3l5,5h22.2l13.2-65.8L329.4,108.1
						L329.4,108.1z"/>
				</g>
				<g>
					<path class="st0" d="M370.8,109.2l4.2,4.2l-7,35.3c-0.4,1.8-0.6,3.5-0.6,5c0,3.2,0.9,5.7,2.6,7.3c1.7,1.6,4.1,2.4,7.3,2.4
						c3.5,0,6.4-1.2,8.4-3.4c2-2.2,3.4-5.8,4.5-10.9l7-35.2l15.7-4.7l4.2,4.2l-7.3,36.6c-2,9.7-5.9,17.1-11.7,22
						c-5.8,4.9-13.7,7.4-23.4,7.4c-5.7,0-10.7-1-14.9-2.9c-4.1-1.9-7.3-4.6-9.4-8c-2.2-3.5-3.3-7.6-3.3-12.3c0-1.9,0.2-4.2,0.7-6.8
						l7.1-35.6L370.8,109.2 M413,108.1l-16.8,5l-7.1,35.8c-1,4.9-2.4,8.4-4.2,10.4c-1.8,2.1-4.4,3.1-7.6,3.1c-2.9,0-5.1-0.7-6.6-2.2
						s-2.3-3.6-2.3-6.6c0-1.4,0.2-3,0.6-4.8l7.1-35.8l-5-5l-17.2,5l-7.2,36.2c-0.5,2.6-0.8,5-0.8,7c0,4.9,1.1,9.2,3.4,12.8
						c2.3,3.6,5.6,6.4,9.9,8.4c4.3,2,9.4,3,15.3,3c10,0,18-2.5,24.1-7.6s10-12.6,12-22.6l7.4-37.1L413,108.1L413,108.1z"/>
				</g>
				<g>
					<path class="st0" d="M474.4,110.2c1.1,0,2.2,0.2,3.3,0.5c2.5,0.7,4.8,2.3,4.9,2.3c1.7,1.2,3.2,2.6,4.4,4.3l-7.2,14.7
						c-2.4-1.4-5-2.5-7.8-3.2c-3.2-0.8-6.5-1.3-9.8-1.3c-3.3,0-5.8,0.5-7.6,1.4c-2,1.1-3.1,2.4-3.1,4c0,1.1,0.5,2.7,2.9,3.7
						c1.6,0.7,4.1,1.5,7.7,2.3c4.2,1,7.8,2,10.6,3.2c2.7,1.1,5.2,2.7,7.2,5c2,2.2,2.9,5.1,2.9,8.7c0,4.6-1.3,8.8-3.9,12.3
						c-2.6,3.5-6.3,6.3-11.1,8.3c-4.9,2-10.7,3-17.3,3c-5.6,0-10.9-0.6-15.8-1.8c-4.8-1.2-8.9-2.7-12-4.7l-4.1-4.1l12.2-10.2
						c7,3.9,14.4,5.9,22.1,5.9c3,0,5.3-0.4,6.9-1.1c2.3-1.1,2.8-2.6,2.8-3.7c0-1.1-0.5-2.6-2.9-3.6c-1.6-0.7-4-1.5-7.4-2.3
						c-4.3-1.1-8-2.3-10.8-3.4c-2.7-1.1-5.1-2.8-7.2-5.1c-2-2.2-3-5.2-3-8.9c0-4.7,1.3-8.9,3.8-12.4c2.5-3.6,6.3-6.3,11.1-8.3
						c3.3-1.4,4.9-1.4,7.1-1.5c2.2-0.1,5-0.2,10.5-1.5c1.2-0.3,2.3-0.6,3.4-0.9C469.9,110.8,472.2,110.2,474.4,110.2 M474.4,109.2
						c-3.3,0-6.5,1.2-10.9,2.3c-10.9,2.7-10.9,0.3-17.8,3.1c-5,2-8.9,4.9-11.5,8.6c-2.7,3.7-4,8.1-4,13c0,3.9,1.1,7.1,3.2,9.5
						c2.2,2.4,4.7,4.2,7.6,5.4c2.9,1.2,6.5,2.3,10.9,3.4c3.3,0.8,5.7,1.6,7.3,2.3c1.5,0.7,2.3,1.6,2.3,2.7c0,1.2-0.8,2.1-2.3,2.8
						s-3.7,1-6.5,1c-7.7,0-15.1-2-22.2-6.1l-13.6,11.4l5,5c3.3,2,7.4,3.6,12.4,4.8c5,1.2,10.4,1.8,16.1,1.8c6.8,0,12.7-1,17.7-3.1
						c5-2,8.9-4.9,11.6-8.6c2.7-3.7,4-8,4-12.9c0-3.9-1.1-7-3.2-9.4c-2.1-2.4-4.7-4.1-7.6-5.3c-2.9-1.1-6.5-2.2-10.8-3.2
						c-3.5-0.8-6-1.6-7.6-2.3c-1.5-0.7-2.3-1.6-2.3-2.8c0-1.2,0.8-2.2,2.5-3.1c1.7-0.9,4.1-1.3,7.1-1.3c3.3,0,6.4,0.4,9.5,1.2
						c3.1,0.8,5.9,2,8.5,3.7l8-16.2c-0.9-1.3-2.5-3.3-5-5c-0.1-0.1-2.5-1.7-5.1-2.4C476.8,109.4,475.6,109.2,474.4,109.2
						L474.4,109.2z"/>
				</g>
				<g>
					<path class="st0" d="M558.2,109.1l4.3,4.3l-3.2,15.9h-18.5H540l-0.2,0.8l-9.5,47.8h-20.9l-4.3-4.3l14.5-43l0.4-1.3h-1.4h-18.9
						l-4.1-4.1l7.7-11.1L558.2,109.1 M558.5,108.1l-55.7,5l-8.5,12.2l5,5h19.3l-14.7,43.6l5,5h22.2l9.7-48.6h19.3l3.5-17.2
						L558.5,108.1L558.5,108.1z"/>
				</g>
				<g>
					<path class="st0" d="M595.6,109.2l4.2,4.2l-9.6,48.1l-0.3,1.5l1.5-0.3l24.2-4.9l4.2,4.2l-3.2,15.9h-50.7l-4.3-4.3l17.8-59.7
						L595.6,109.2 M595.9,108.1l-17.2,5l-18.2,60.8l5,5h51.9l3.5-17.2l-5-5l-24.7,5l9.7-48.6L595.9,108.1L595.9,108.1z"/>
				</g>
				<g>
					<path class="st0" d="M694.2,109.1l4.3,4.3l-3.1,15.4h-30.9h-0.8l-0.2,0.8l-1.5,7.7l-0.3,1.5l1.5-0.3l22.3-4.9l4.2,4.2
						l-2.9,14.7h-27.1h-0.8l-0.2,0.8l-1.7,8.6l-0.3,1.4l1.4-0.3l27.5-4.9l4.3,4.3l-3.1,15.4h-53.5l-4.3-4.3l17.8-59.6L694.2,109.1
						 M694.6,108.1l-48.5,5l-18.2,60.8l5,5h54.7l3.4-16.7l-5-5l-28,5l1.7-8.6h27.9l3.2-16l-5-5l-22.8,5l1.5-7.7h31.7l3.4-16.7
						L694.6,108.1L694.6,108.1z"/>
				</g>
			</g>
			<line class="st1" x1="611.8" y1="173.3" x2="616.9" y2="178.4"/>
			<line class="st1" x1="681.8" y1="173" x2="686.9" y2="178.1"/>
			<line class="st1" x1="315.7" y1="173.4" x2="320.8" y2="178.4"/>
			<line class="st1" x1="272.9" y1="173.3" x2="278" y2="178.3"/>
			<line class="st1" x1="682" y1="147.9" x2="687.1" y2="152.9"/>
			<line class="st1" x1="654.6" y1="148.4" x2="659.7" y2="153.5"/>
			<line class="st1" x1="659.4" y1="124.7" x2="664.5" y2="129.8"/>
			<line class="st1" x1="535.7" y1="125.2" x2="540.8" y2="130.3"/>
			<line class="st1" x1="690.6" y1="124.2" x2="695.6" y2="129.3"/>
			<line class="st1" x1="554.4" y1="124.6" x2="559.5" y2="129.7"/>
			<line class="st1" x1="475" y1="127.6" x2="479.8" y2="132"/>
			<line class="st1" x1="525.1" y1="172.8" x2="530.6" y2="178.4"/>
		</g>
		<g>
			<path class="st0" d="M329.4,108.1l-13.2,65.8H294l4.9-24.3h-20.5l-4.9,24.3h-22.2l13.2-65.8h22.2l-4.7,23.3h20.5l4.7-23.3H329.4z
				"/>
			<path class="st0" d="M354.2,172.4c-4.3-2-7.6-4.8-9.9-8.4c-2.3-3.6-3.4-7.9-3.4-12.8c0-2,0.2-4.3,0.8-7l7.2-36.2h22.2l-7.1,35.8
				c-0.4,1.8-0.6,3.4-0.6,4.8c0,2.9,0.8,5.1,2.3,6.6c1.5,1.4,3.7,2.2,6.6,2.2c3.3,0,5.8-1,7.6-3.1c1.8-2.1,3.2-5.5,4.2-10.4
				l7.1-35.8H413l-7.4,37.1c-2,10-6,17.5-12,22.6c-6,5.1-14,7.6-24.1,7.6C363.6,175.4,358.5,174.4,354.2,172.4z"/>
			<path class="st0" d="M429.5,173.5c-5-1.2-9.2-2.8-12.4-4.8l8.6-16.4c7.1,4.1,14.5,6.1,22.2,6.1c2.8,0,5-0.3,6.5-1
				c1.5-0.7,2.3-1.6,2.3-2.8c0-1.1-0.8-2-2.3-2.7c-1.5-0.7-4-1.4-7.3-2.3c-4.4-1.1-8-2.3-10.9-3.4c-2.9-1.2-5.4-2.9-7.6-5.4
				c-2.2-2.4-3.2-5.6-3.2-9.5c0-4.9,1.3-9.3,4-13c2.7-3.7,6.5-6.6,11.5-8.6c5-2,10.9-3.1,17.8-3.1c4.9,0,9.4,0.5,13.7,1.5
				c4.2,1,7.9,2.4,11,4.2l-8,16.2c-2.6-1.6-5.4-2.9-8.5-3.7c-3.1-0.8-6.3-1.2-9.5-1.2c-3.1,0-5.5,0.4-7.1,1.3
				c-1.7,0.9-2.5,1.9-2.5,3.1c0,1.2,0.8,2.1,2.3,2.8c1.5,0.7,4.1,1.4,7.6,2.3c4.3,1,7.8,2.1,10.8,3.2s5.4,2.9,7.6,5.3
				c2.1,2.4,3.2,5.5,3.2,9.4c0,4.9-1.3,9.2-4,12.9c-2.7,3.7-6.5,6.6-11.6,8.6c-5,2-10.9,3.1-17.7,3.1
				C439.8,175.4,434.5,174.7,429.5,173.5z"/>
			<path class="st0" d="M513.6,125.3h-19.3l3.5-17.2h60.7l-3.5,17.2h-19.3l-9.7,48.6h-22.2L513.6,125.3z"/>
			<path class="st0" d="M573.7,108.1h22.2l-9.7,48.6h29.7l-3.5,17.2h-51.9L573.7,108.1z"/>
			<path class="st0" d="M659.5,124.8l-1.5,7.7h27.8l-3.2,16h-27.9l-1.7,8.6h33l-3.4,16.7h-54.7l13.2-65.8h53.5l-3.4,16.7H659.5z"/>
		</g>
		<g>
			<g>
				<path class="st2" d="M328.1,109.1l-12.8,63.8h-20.1l4.6-23.1l0.2-1.2h-1.2h-20.5h-0.8l-0.2,0.8l-4.7,23.4h-20.1l12.8-63.8h20.1
					l-4.5,22.1l-0.2,1.2h1.2h20.5h0.8l0.2-0.8l4.5-22.5H328.1 M329.4,108.1h-22.2l-4.7,23.3H282l4.7-23.3h-22.2l-13.2,65.8h22.2
					l4.9-24.3h20.5l-4.9,24.3h22.2L329.4,108.1L329.4,108.1z"/>
			</g>
			<g>
				<path class="st2" d="M411.8,109.1l-7.2,35.9c-2,9.7-5.9,17.1-11.7,22c-5.8,4.9-13.7,7.4-23.4,7.4c-5.7,0-10.7-1-14.9-2.9
					c-4.1-1.9-7.3-4.6-9.4-8c-2.2-3.5-3.3-7.6-3.3-12.3c0-1.9,0.2-4.2,0.7-6.8l7.1-35.4h20.1l-6.9,34.6c-0.4,1.8-0.6,3.5-0.6,5
					c0,3.2,0.9,5.7,2.6,7.3c1.7,1.6,4.1,2.4,7.3,2.4c3.5,0,6.4-1.2,8.4-3.4c2-2.2,3.4-5.8,4.5-10.9l7-35H411.8 M413,108.1h-21.8
					l-7.1,35.8c-1,4.9-2.4,8.4-4.2,10.4c-1.8,2.1-4.4,3.1-7.6,3.1c-2.9,0-5.1-0.7-6.6-2.2c-1.5-1.4-2.3-3.6-2.3-6.6
					c0-1.4,0.2-3,0.6-4.8l7.1-35.8h-22.2l-7.2,36.2c-0.5,2.6-0.8,5-0.8,7c0,4.9,1.1,9.2,3.4,12.8c2.3,3.6,5.6,6.4,9.9,8.4
					c4.3,2,9.4,3,15.3,3c10,0,18-2.5,24.1-7.6c6-5.1,10-12.6,12-22.6L413,108.1L413,108.1z"/>
			</g>
			<g>
				<path class="st2" d="M458.5,107.6c4.8,0,9.3,0.5,13.5,1.4c3.7,0.9,7.1,2.1,9.9,3.6l-7.1,14.3c-2.4-1.4-5-2.5-7.8-3.2
					c-3.2-0.8-6.5-1.3-9.8-1.3c-3.3,0-5.8,0.5-7.6,1.4c-2,1.1-3.1,2.4-3.1,4c0,1.1,0.5,2.7,2.9,3.7c1.6,0.7,4.1,1.5,7.7,2.3
					c4.2,1,7.8,2.1,10.6,3.2c2.8,1.1,5.2,2.7,7.2,5c2,2.2,2.9,5.1,2.9,8.7c0,4.6-1.3,8.8-3.9,12.3c-2.6,3.5-6.3,6.3-11.1,8.3
					c-4.9,2-10.7,3-17.3,3c-5.6,0-10.9-0.6-15.8-1.8c-4.5-1.1-8.3-2.5-11.3-4.2l7.6-14.6c6.9,3.8,14.3,5.7,21.8,5.7
					c3,0,5.3-0.4,6.9-1.1c2.3-1.1,2.8-2.6,2.8-3.7c0-1.1-0.5-2.6-2.9-3.6c-1.6-0.7-4-1.5-7.4-2.3c-4.3-1.1-8-2.3-10.8-3.4
					c-2.7-1.1-5.1-2.8-7.2-5.1c-2-2.2-3-5.2-3-8.9c0-4.7,1.3-8.9,3.8-12.4c2.5-3.6,6.3-6.3,11.1-8.3
					C446,108.6,451.9,107.6,458.5,107.6 M458.5,106.6c-6.8,0-12.8,1-17.8,3.1c-5,2-8.9,4.9-11.5,8.6c-2.7,3.7-4,8.1-4,13
					c0,3.9,1.1,7.1,3.2,9.5c2.2,2.4,4.7,4.2,7.6,5.4c2.9,1.2,6.5,2.3,10.9,3.4c3.3,0.8,5.7,1.6,7.3,2.3c1.5,0.7,2.3,1.6,2.3,2.7
					c0,1.2-0.8,2.1-2.3,2.8c-1.5,0.7-3.7,1-6.5,1c-7.7,0-15.1-2-22.2-6.1l-8.6,16.4c3.3,2,7.4,3.6,12.4,4.8c5,1.2,10.4,1.8,16.1,1.8
					c6.8,0,12.7-1,17.7-3.1c5-2,8.9-4.9,11.6-8.6c2.7-3.7,4-8,4-12.9c0-3.9-1.1-7-3.2-9.4c-2.1-2.4-4.7-4.1-7.6-5.3
					s-6.5-2.2-10.8-3.2c-3.5-0.8-6-1.6-7.6-2.3c-1.5-0.7-2.3-1.6-2.3-2.8c0-1.2,0.8-2.2,2.5-3.1c1.7-0.9,4.1-1.3,7.1-1.3
					c3.3,0,6.4,0.4,9.5,1.2c3.1,0.8,5.9,2,8.5,3.7l8-16.2c-3.1-1.8-6.7-3.2-11-4.2C468,107,463.4,106.6,458.5,106.6L458.5,106.6z"/>
			</g>
			<g>
				<path class="st2" d="M557.3,109.1l-3.1,15.2h-18.5H535l-0.2,0.8l-9.5,47.8h-20.1l9.4-47.4l0.2-1.2h-1.2h-18l3.1-15.2H557.3
					 M558.5,108.1h-60.7l-3.5,17.2h19.3l-9.7,48.6h22.2l9.7-48.6h19.3L558.5,108.1L558.5,108.1z"/>
			</g>
			<g>
				<path class="st2" d="M594.6,109.1l-9.4,47.4l-0.2,1.2h1.2h28.5l-3.1,15.2h-49.9l12.8-63.8H594.6 M595.9,108.1h-22.2l-13.2,65.8
					h51.9l3.5-17.2h-29.7L595.9,108.1L595.9,108.1z"/>
			</g>
			<g>
				<path class="st2" d="M693.3,109.1l-3,14.7h-30.9h-0.8l-0.2,0.8l-1.5,7.7l-0.2,1.2h1.2h26.6l-2.8,14h-27.1h-0.8l-0.2,0.8
					l-1.7,8.6l-0.2,1.2h1.2h31.8l-3,14.7h-52.7l12.8-63.8H693.3 M694.6,108.1h-53.5l-13.2,65.8h54.7l3.4-16.7h-33l1.7-8.6h27.9
					l3.2-16H658l1.5-7.7h31.7L694.6,108.1L694.6,108.1z"/>
			</g>
		</g>
	</g>
	<g>
		<path class="st1" d="M112.3,2.3L91.2,68.1H67.4L56.8,32.9L45.6,68.1H21.8L0.8,2.3h22.8l11.5,37.4L47.2,2.3h20.4l11.5,37.9
			L91.2,2.3H112.3z"/>
		<path class="st1" d="M171.9,51.3v16.7h-54.7V2.3h53.5V19H139v7.7h27.8v16H139v8.6H171.9z"/>
		<path class="st1" d="M223.8,65.2c-5.6-2.9-9.9-7-13.1-12.2c-3.2-5.2-4.7-11.2-4.7-17.8c0-6.6,1.6-12.6,4.7-17.8
			c3.2-5.2,7.5-9.3,13.1-12.2c5.6-2.9,11.8-4.4,18.8-4.4c6.4,0,12.1,1.1,17.1,3.4c5,2.3,9.1,5.5,12.4,9.8l-14,12.5
			c-4.1-5.1-8.9-7.7-14.4-7.7c-4.6,0-8.4,1.5-11.2,4.5c-2.8,3-4.2,7-4.2,12c0,5,1.4,9,4.2,12c2.8,3,6.5,4.5,11.2,4.5
			c5.5,0,10.3-2.6,14.4-7.7l14,12.5c-3.3,4.3-7.4,7.5-12.4,9.8c-5,2.3-10.7,3.4-17.1,3.4C235.7,69.6,229.4,68.1,223.8,65.2z"/>
		<path class="st1" d="M306.7,51.5h-6v16.5h-22.2V2.3h31.7c6.1,0,11.4,1,15.9,3c4.5,2,8,4.9,10.4,8.6c2.4,3.8,3.7,8.1,3.7,13.2
			c0,4.7-1.1,8.8-3.2,12.3c-2.1,3.5-5.2,6.3-9.2,8.4l13.8,20.3h-23.7L306.7,51.5z M315.6,21.4c-1.5-1.3-3.8-2-6.8-2h-8.1v15.4h8.1
			c3,0,5.3-0.7,6.8-2c1.5-1.3,2.3-3.2,2.3-5.7C317.8,24.6,317.1,22.7,315.6,21.4z"/>
		<path class="st1" d="M403.3,51.3v16.7h-54.7V2.3h53.5V19h-31.7v7.7h27.8v16h-27.8v8.6H403.3z"/>
		<path class="st1" d="M456.7,56.6h-25l-4.4,11.5h-22.6l28.8-65.8h21.8L484,68.1h-22.9L456.7,56.6z M450.6,40.6l-6.4-16.5l-6.4,16.5
			H450.6z"/>
		<path class="st1" d="M498.6,19.5h-19.3V2.3h60.7v17.2h-19.3v48.6h-22.2V19.5z"/>
		<path class="st1" d="M600.5,51.3v16.7h-54.7V2.3h53.5V19h-31.7v7.7h27.8v16h-27.8v8.6H600.5z"/>
	</g>
	<g>
		<path class="st1" d="M48.6,153v23.9H26.5v-24.2L1.6,111.1h23.4l13.4,22.7L52,111.1h21.4L48.6,153z"/>
		<path class="st1" d="M88.9,174c-5.6-2.9-10.1-7-13.3-12.3s-4.8-11.1-4.8-17.7s1.6-12.5,4.8-17.7c3.2-5.2,7.6-9.3,13.3-12.3
			c5.6-2.9,12-4.4,19.1-4.4c7.1,0,13.4,1.5,19.1,4.4c5.6,2.9,10.1,7,13.3,12.3c3.2,5.2,4.8,11.1,4.8,17.7s-1.6,12.5-4.8,17.7
			c-3.2,5.2-7.6,9.3-13.3,12.3c-5.6,2.9-12,4.4-19.1,4.4C100.9,178.4,94.5,176.9,88.9,174z M115.4,158.4c2.2-1.3,4-3.3,5.3-5.7
			c1.3-2.5,2-5.4,2-8.7c0-3.3-0.7-6.2-2-8.7s-3.1-4.4-5.3-5.7c-2.2-1.3-4.7-2-7.5-2c-2.8,0-5.2,0.7-7.5,2c-2.2,1.3-4,3.3-5.3,5.7
			c-1.3,2.5-2,5.4-2,8.7c0,3.3,0.7,6.2,2,8.7c1.3,2.5,3.1,4.4,5.3,5.7c2.2,1.3,4.7,2,7.5,2C110.7,160.4,113.2,159.7,115.4,158.4z"/>
		<path class="st1" d="M161.1,170.2c-5.6-5.5-8.5-13.1-8.5-22.9v-36.2h22.2v35.5c0,4.8,0.9,8.3,2.6,10.5c1.7,2.2,4.2,3.3,7.5,3.3
			c3.3,0,5.7-1.1,7.5-3.3c1.7-2.2,2.6-5.7,2.6-10.5v-35.5h21.8v36.2c0,9.8-2.8,17.5-8.5,22.9s-13.5,8.2-23.6,8.2
			C174.6,178.4,166.7,175.6,161.1,170.2z"/>
	</g>
</g>
</svg>
